<mxfile host="app.diagrams.net" modified="2022-03-24T03:37:11.795Z" agent="5.0 (Windows NT 6.1; Win64; x64) AppleWebKit/537.36 (KHTML, like Gecko) Chrome/99.0.4844.82 Safari/537.36" etag="otTGaxIuW4dDut0ma-Ky" version="17.1.5" type="github">
  <diagram id="eoeE-TZlK-y4NeMJoAB7" name="Page-1">
    <mxGraphModel dx="1231" dy="750" grid="1" gridSize="10" guides="1" tooltips="1" connect="1" arrows="1" fold="1" page="1" pageScale="1" pageWidth="827" pageHeight="1169" math="0" shadow="0">
      <root>
        <mxCell id="0" />
        <mxCell id="1" parent="0" />
        <mxCell id="vd5Tt2Td3QVAYVXvcv8U-4" value="" style="edgeStyle=orthogonalEdgeStyle;rounded=0;orthogonalLoop=1;jettySize=auto;html=1;" edge="1" parent="1" source="vd5Tt2Td3QVAYVXvcv8U-1" target="vd5Tt2Td3QVAYVXvcv8U-2">
          <mxGeometry relative="1" as="geometry" />
        </mxCell>
        <mxCell id="vd5Tt2Td3QVAYVXvcv8U-1" value="Начало" style="ellipse;whiteSpace=wrap;html=1;" vertex="1" parent="1">
          <mxGeometry x="354" y="110" width="120" height="80" as="geometry" />
        </mxCell>
        <mxCell id="vd5Tt2Td3QVAYVXvcv8U-5" value="" style="edgeStyle=orthogonalEdgeStyle;rounded=0;orthogonalLoop=1;jettySize=auto;html=1;" edge="1" parent="1" source="vd5Tt2Td3QVAYVXvcv8U-2" target="vd5Tt2Td3QVAYVXvcv8U-3">
          <mxGeometry relative="1" as="geometry" />
        </mxCell>
        <mxCell id="vd5Tt2Td3QVAYVXvcv8U-2" value="Получить список пользователей" style="rounded=0;whiteSpace=wrap;html=1;" vertex="1" parent="1">
          <mxGeometry x="354" y="230" width="120" height="60" as="geometry" />
        </mxCell>
        <mxCell id="vd5Tt2Td3QVAYVXvcv8U-9" value="" style="edgeStyle=orthogonalEdgeStyle;rounded=0;orthogonalLoop=1;jettySize=auto;html=1;" edge="1" parent="1" source="vd5Tt2Td3QVAYVXvcv8U-3" target="vd5Tt2Td3QVAYVXvcv8U-8">
          <mxGeometry relative="1" as="geometry" />
        </mxCell>
        <mxCell id="vd5Tt2Td3QVAYVXvcv8U-18" style="edgeStyle=orthogonalEdgeStyle;rounded=0;orthogonalLoop=1;jettySize=auto;html=1;" edge="1" parent="1" source="vd5Tt2Td3QVAYVXvcv8U-3" target="vd5Tt2Td3QVAYVXvcv8U-17">
          <mxGeometry relative="1" as="geometry">
            <Array as="points">
              <mxPoint x="660" y="360" />
              <mxPoint x="660" y="630" />
              <mxPoint x="414" y="630" />
            </Array>
          </mxGeometry>
        </mxCell>
        <mxCell id="vd5Tt2Td3QVAYVXvcv8U-3" value="Читать каждого пользователя из списка" style="shape=hexagon;perimeter=hexagonPerimeter2;whiteSpace=wrap;html=1;fixedSize=1;" vertex="1" parent="1">
          <mxGeometry x="354" y="320" width="120" height="80" as="geometry" />
        </mxCell>
        <mxCell id="vd5Tt2Td3QVAYVXvcv8U-11" value="" style="edgeStyle=orthogonalEdgeStyle;rounded=0;orthogonalLoop=1;jettySize=auto;html=1;" edge="1" parent="1" source="vd5Tt2Td3QVAYVXvcv8U-8" target="vd5Tt2Td3QVAYVXvcv8U-10">
          <mxGeometry relative="1" as="geometry" />
        </mxCell>
        <mxCell id="vd5Tt2Td3QVAYVXvcv8U-19" style="edgeStyle=orthogonalEdgeStyle;rounded=0;orthogonalLoop=1;jettySize=auto;html=1;" edge="1" parent="1" source="vd5Tt2Td3QVAYVXvcv8U-8" target="vd5Tt2Td3QVAYVXvcv8U-10">
          <mxGeometry relative="1" as="geometry" />
        </mxCell>
        <mxCell id="vd5Tt2Td3QVAYVXvcv8U-8" value="Вывести пользователю приветствие" style="shape=parallelogram;perimeter=parallelogramPerimeter;whiteSpace=wrap;html=1;fixedSize=1;" vertex="1" parent="1">
          <mxGeometry x="354" y="440" width="120" height="60" as="geometry" />
        </mxCell>
        <mxCell id="vd5Tt2Td3QVAYVXvcv8U-15" style="edgeStyle=orthogonalEdgeStyle;rounded=0;orthogonalLoop=1;jettySize=auto;html=1;entryX=0;entryY=0.5;entryDx=0;entryDy=0;" edge="1" parent="1" source="vd5Tt2Td3QVAYVXvcv8U-10" target="vd5Tt2Td3QVAYVXvcv8U-12">
          <mxGeometry relative="1" as="geometry" />
        </mxCell>
        <mxCell id="vd5Tt2Td3QVAYVXvcv8U-16" style="edgeStyle=orthogonalEdgeStyle;rounded=0;orthogonalLoop=1;jettySize=auto;html=1;exitX=0;exitY=0.5;exitDx=0;exitDy=0;entryX=0;entryY=0.5;entryDx=0;entryDy=0;" edge="1" parent="1" source="vd5Tt2Td3QVAYVXvcv8U-10" target="vd5Tt2Td3QVAYVXvcv8U-3">
          <mxGeometry relative="1" as="geometry" />
        </mxCell>
        <mxCell id="vd5Tt2Td3QVAYVXvcv8U-10" value="Если есть премиум" style="rhombus;whiteSpace=wrap;html=1;" vertex="1" parent="1">
          <mxGeometry x="374" y="520" width="80" height="80" as="geometry" />
        </mxCell>
        <mxCell id="vd5Tt2Td3QVAYVXvcv8U-12" value="Вывести рекламу" style="shape=parallelogram;perimeter=parallelogramPerimeter;whiteSpace=wrap;html=1;fixedSize=1;" vertex="1" parent="1">
          <mxGeometry x="480" y="530" width="120" height="60" as="geometry" />
        </mxCell>
        <mxCell id="vd5Tt2Td3QVAYVXvcv8U-17" value="Конец" style="ellipse;whiteSpace=wrap;html=1;" vertex="1" parent="1">
          <mxGeometry x="360" y="650" width="120" height="80" as="geometry" />
        </mxCell>
      </root>
    </mxGraphModel>
  </diagram>
</mxfile>
